<svg id='Insect_24' width='24' height='24' viewBox='0 0 24 24' xmlns='http://www.w3.org/2000/svg' xmlns:xlink='http://www.w3.org/1999/xlink'><rect width='24' height='24' stroke='none' fill='#000000' opacity='0'/>


<g transform="matrix(0.42 0 0 0.42 12 12)" >
<g style="" >
<g transform="matrix(1 0 0 1 0.03 -0.49)" >
<path style="stroke: none; stroke-width: 1; stroke-dasharray: none; stroke-linecap: butt; stroke-dashoffset: 0; stroke-linejoin: miter; stroke-miterlimit: 4; fill: rgb(55,71,79); fill-rule: nonzero; opacity: 1;" transform=" translate(-24.03, -23.51)" d="M 29 19 C 28.6 19 28.3 18.8 28.1 18.4 C 27.900000000000002 17.9 28.1 17.299999999999997 28.5 17.099999999999998 L 33.9 14.399999999999999 L 33.9 8.5 L 38.3 5.2 C 38.699999999999996 4.9 39.4 5 39.699999999999996 5.4 C 39.99999999999999 5.800000000000001 39.9 6.5 39.49999999999999 6.800000000000001 L 36 9.5 L 36 15.6 L 29.4 18.9 C 29.3 19 29.2 19 29 19 z M 19 19 C 18.9 19 18.7 19 18.6 18.9 L 12 15.6 L 12 9.5 L 8.4 6.8 C 8 6.5 7.9 5.8 8.2 5.4 C 8.5 5 9.2 4.9 9.6 5.2 L 14 8.5 L 14 14.4 L 19.4 17.1 C 19.9 17.3 20.099999999999998 17.900000000000002 19.799999999999997 18.400000000000002 C 19.7 18.8 19.4 19 19 19 z M 38 42 C 37.8 42 37.7 42 37.6 41.9 L 31.1 38.699999999999996 L 30.1 30.799999999999997 L 27.700000000000003 29.999999999999996 C 27.200000000000003 29.799999999999997 26.900000000000002 29.299999999999997 27.1 28.699999999999996 C 27.3 28.199999999999996 27.8 27.899999999999995 28.400000000000002 28.099999999999994 L 32 29.299999999999994 L 33 37.39999999999999 L 38.5 40.19999999999999 C 39 40.39999999999999 39.2 40.999999999999986 38.9 41.499999999999986 C 38.7 41.8 38.4 42 38 42 z M 41 35 C 40.8 35 40.7 35 40.6 34.9 L 36.1 32.699999999999996 L 35.1 23.799999999999997 L 29.700000000000003 21.999999999999996 C 29.200000000000003 21.799999999999997 28.900000000000002 21.299999999999997 29.1 20.699999999999996 C 29.3 20.199999999999996 29.8 19.899999999999995 30.400000000000002 20.099999999999994 L 37 22.299999999999994 L 38 31.39999999999999 L 41.5 33.19999999999999 C 42 33.39999999999999 42.2 33.999999999999986 41.9 34.499999999999986 C 41.7 34.8 41.4 35 41 35 z M 10 42 C 9.6 42 9.3 41.8 9.1 41.4 C 8.9 40.9 9.1 40.3 9.5 40.1 L 15 37.300000000000004 L 16 29.200000000000003 L 19.6 28.000000000000004 C 20.1 27.800000000000004 20.700000000000003 28.100000000000005 20.900000000000002 28.600000000000005 C 21.1 29.100000000000005 20.8 29.700000000000006 20.3 29.900000000000006 L 17.900000000000002 30.700000000000006 L 16.900000000000002 38.60000000000001 L 10.400000000000002 41.80000000000001 C 10.3 42 10.2 42 10 42 z M 7 35 C 6.6 35 6.3 34.8 6.1 34.4 C 5.8999999999999995 33.9 6.1 33.3 6.5 33.1 L 10 31.3 L 11 22.200000000000003 L 17.6 20.000000000000004 C 18.1 19.800000000000004 18.700000000000003 20.100000000000005 18.900000000000002 20.600000000000005 C 19.1 21.100000000000005 18.8 21.700000000000006 18.3 21.900000000000006 L 12.9 23.700000000000006 L 11.9 32.60000000000001 L 7.4 34.80000000000001 C 7.3 35 7.2 35 7 35 z M 28 16 C 28 17.1 27.1 18 26 18 L 22 18 C 20.9 18 20 17.1 20 16 L 20 13 C 20 11.9 20.9 11 22 11 L 26 11 C 27.1 11 28 11.9 28 13 L 28 16 z" stroke-linecap="round" />
</g>
<g transform="matrix(1 0 0 1 1.5 -15.5)" >
<path style="stroke: none; stroke-width: 1; stroke-dasharray: none; stroke-linecap: butt; stroke-dashoffset: 0; stroke-linejoin: miter; stroke-miterlimit: 4; fill: rgb(55,71,79); fill-rule: nonzero; opacity: 1;" transform=" translate(-25.5, -8.5)" d="M 25 12 L 23 12 L 23 8.3 L 23.7 8.100000000000001 C 23.8 8 26 7.2 26 5 L 28 5 C 28 7.7 26.1 9.1 25 9.6 L 25 12 z" stroke-linecap="round" />
</g>
<g transform="matrix(1 0 0 1 -1.85 -16.55)" >
<path style="stroke: none; stroke-width: 1; stroke-dasharray: none; stroke-linecap: butt; stroke-dashoffset: 0; stroke-linejoin: miter; stroke-miterlimit: 4; fill: rgb(55,71,79); fill-rule: nonzero; opacity: 1;" transform=" translate(-22.15, -7.45)" d="M 23.7 9.9 C 23.5 9.9 20 8.7 20 5 L 22 5 C 22 7.2 24.2 8 24.3 8.1 L 23.7 9.9 z" stroke-linecap="round" />
</g>
<g transform="matrix(1 0 0 1 -0.15 9)" >
<path style="stroke: none; stroke-width: 1; stroke-dasharray: none; stroke-linecap: butt; stroke-dashoffset: 0; stroke-linejoin: miter; stroke-miterlimit: 4; fill: rgb(139,195,74); fill-rule: nonzero; opacity: 1;" transform=" translate(-23.85, -33)" d="M 15.9 34 C 15.9 34 16.9 42 24 42 C 31.1 42 32.1 34 32.1 34 L 32.9 26 C 32.9 26 33.1 24 31 24 C 29 24 18.8 24 16.7 24 C 14.7 24 14.799999999999999 26 14.799999999999999 26 L 15.9 34 z" stroke-linecap="round" />
</g>
<g transform="matrix(1 0 0 1 0 9)" >
<path style="stroke: none; stroke-width: 1; stroke-dasharray: none; stroke-linecap: butt; stroke-dashoffset: 0; stroke-linejoin: miter; stroke-miterlimit: 4; fill: rgb(46,125,50); fill-rule: nonzero; opacity: 1;" transform=" translate(-24, -33)" d="M 25 24 C 24.3 24 23.7 24 23 24 L 23 41.9 C 23.3 41.9 23.6 42 24 42 C 24.4 42 24.7 42 25 41.9 L 25 24 z" stroke-linecap="round" />
</g>
<g transform="matrix(1 0 0 1 0 8.7)" >
<path style="stroke: none; stroke-width: 1; stroke-dasharray: none; stroke-linecap: butt; stroke-dashoffset: 0; stroke-linejoin: miter; stroke-miterlimit: 4; fill: rgb(67,160,71); fill-rule: nonzero; opacity: 1;" transform=" translate(-24, -32.7)" d="M 29 40.1 L 29 24 C 28.4 24 27.7 24 27 24 L 27 41.4 C 27.8 41.1 28.5 40.6 29 40.1 z M 32.2 34 L 33 26 C 33 26 33.3 24 31 24 L 31 37.6 C 31.9 35.9 32.2 34 32.2 34 z M 21 41.4 L 21 24 C 20.3 24 19.6 24 19 24 L 19 40.1 C 19.6 40.6 20.2 41.1 21 41.4 z M 15 26 L 15.8 34 C 15.8 34 16.1 35.9 16.900000000000002 37.5 L 16.900000000000002 24 C 14.8 24 15 26 15 26 z" stroke-linecap="round" />
</g>
<g transform="matrix(1 0 0 1 0 -5)" >
<path style="stroke: none; stroke-width: 1; stroke-dasharray: none; stroke-linecap: butt; stroke-dashoffset: 0; stroke-linejoin: miter; stroke-miterlimit: 4; fill: rgb(46,125,50); fill-rule: nonzero; opacity: 1;" transform=" translate(-24, -19)" d="M 25 14 L 23 14 C 17.1 14 15 17.8 15 22 C 15 23.9 17.2 24 17.2 24 L 30.799999999999997 24 C 30.799999999999997 24 33 24 33 22.1 C 33 17.8 30.9 14 25 14 z" stroke-linecap="round" />
</g>
<g transform="matrix(1 0 0 1 0 2)" >
<path style="stroke: none; stroke-width: 1; stroke-dasharray: none; stroke-linecap: butt; stroke-dashoffset: 0; stroke-linejoin: miter; stroke-miterlimit: 4; fill: rgb(9,53,11); fill-rule: nonzero; opacity: 1;" transform=" translate(-24, -26)" d="M 21 24 C 21 24 22 22 24 22 C 26 22 27 24 27 24 C 25 24 24 30 24 30 C 24 30 23 24 21 24 z" stroke-linecap="round" />
</g>
</g>
</g>
</svg>
